<?xml version="1.0" encoding="UTF-8" standalone="no"?>
<!-- Created with Inkscape (http://www.inkscape.org/) -->

<svg
   width="210mm"
   height="297mm"
   viewBox="0 0 210 297"
   version="1.1"
   id="svg5"
   inkscape:version="1.2.2 (b0a8486541, 2022-12-01)"
   sodipodi:docname="AuGap.svg"
   xmlns:inkscape="http://www.inkscape.org/namespaces/inkscape"
   xmlns:sodipodi="http://sodipodi.sourceforge.net/DTD/sodipodi-0.dtd"
   xmlns="http://www.w3.org/2000/svg"
   xmlns:svg="http://www.w3.org/2000/svg">
  <sodipodi:namedview
     id="namedview7"
     pagecolor="#ffffff"
     bordercolor="#000000"
     borderopacity="0.25"
     inkscape:showpageshadow="2"
     inkscape:pageopacity="0.0"
     inkscape:pagecheckerboard="0"
     inkscape:deskcolor="#d1d1d1"
     inkscape:document-units="mm"
     showgrid="false"
     inkscape:zoom="3.3638608"
     inkscape:cx="513.24953"
     inkscape:cy="767.86768"
     inkscape:window-width="1920"
     inkscape:window-height="1011"
     inkscape:window-x="0"
     inkscape:window-y="0"
     inkscape:window-maximized="1"
     inkscape:current-layer="layer1" />
  <defs
     id="defs2" />
  <g
     inkscape:label="Layer 1"
     inkscape:groupmode="layer"
     id="layer1">
    <rect
       style="fill:#d4aa00;stroke-width:0.283223"
       id="rect111"
       width="73.319107"
       height="6.9920454"
       x="-132.71298"
       y="265.84634"
       transform="matrix(0.91991308,-0.39212234,0.79135325,0.61135917,0,0)" />
    <g
       id="g1209"
       transform="translate(-11.376877,-2.6955897)"
       style="fill:#aa8800">
      <ellipse
         style="fill:#aa8800;stroke:#000000;stroke-width:0;stroke-dasharray:none;stroke-opacity:1"
         id="path1031"
         cx="171.97781"
         cy="191.64116"
         rx="1.1853426"
         ry="1.4614735" />
      <ellipse
         style="fill:#aa8800;stroke:#000000;stroke-width:0;stroke-dasharray:none;stroke-opacity:1"
         id="path1031-6"
         cx="166.40501"
         cy="187.77643"
         rx="1.1853426"
         ry="1.4614735" />
      <path
         style="fill:#aa8800;stroke:#000000;stroke-width:0;stroke-dasharray:none;stroke-opacity:1"
         d="m 168.71814,190.99662 c -1.40258,-0.98065 -2.55731,-1.79036 -2.56607,-1.79935 -0.009,-0.009 0.007,-0.0106 0.0353,-0.003 0.0282,0.007 0.11839,0.004 0.20044,-0.008 0.49201,-0.0684 0.87223,-0.43672 1.04831,-1.01543 0.048,-0.15781 0.0537,-0.20749 0.0549,-0.48079 0.002,-0.33692 -0.0311,-0.5075 -0.14502,-0.75875 -0.0314,-0.0694 -0.0536,-0.12611 -0.0491,-0.12611 0.009,0 5.08455,3.4954 5.10584,3.51628 0.007,0.007 -0.0553,0.0143 -0.13943,0.0154 -0.20956,0.003 -0.39597,0.0628 -0.58226,0.18741 -0.19402,0.12977 -0.34049,0.30676 -0.46158,0.55776 -0.13763,0.28529 -0.16789,0.42907 -0.16552,0.78655 0.002,0.3425 0.0385,0.51162 0.16306,0.76197 0.0417,0.0838 0.0703,0.15173 0.0636,0.15092 -0.007,-8e-4 -1.15985,-0.80383 -2.56244,-1.78448 z"
         id="path1196" />
    </g>
    <rect
       style="opacity:0.73186;fill:#808080;stroke-width:0.29663"
       id="rect111-3"
       width="75.362839"
       height="7.4616723"
       x="-135.55272"
       y="263.76181"
       transform="matrix(0.90907995,-0.4166217,0.80107391,0.59856544,0,0)" />
    <circle
       id="path1336"
       style="fill:#000000;stroke:#000000;stroke-width:0.264583"
       cx="93.874336"
       cy="218.7973"
       r="0" />
    <path
       style="opacity:1;fill:#000000;stroke:#000000;stroke-width:0.2;stroke-dasharray:none;stroke-opacity:1"
       d="m 94.068515,218.78378 3.605826,2.84723"
       id="path1392" />
    <path
       style="opacity:1;fill:#000000;stroke:#000000;stroke-width:0.2;stroke-dasharray:none;stroke-opacity:1"
       d="M 96.079126,220.04624 162.13091,191.67526"
       id="path1394" />
    <path
       style="opacity:1;fill:#000000;stroke:#000000;stroke-width:0.2;stroke-dasharray:none;stroke-opacity:1"
       d="m 160.42847,190.46533 3.16001,2.34182"
       id="path1396" />
    <path
       style="opacity:1;fill:#000000;stroke:#000000;stroke-width:0.2;stroke-dasharray:none;stroke-opacity:1"
       d="m 162.6394,187.23281 2.70867,-1.24926"
       id="path1398" />
    <path
       style="opacity:1;fill:#000000;stroke:#000000;stroke-width:0.2;stroke-dasharray:none;stroke-opacity:1"
       d="m 161.78772,189.97651 3.85531,-1.64069"
       id="path1400" />
    <path
       style="opacity:1;fill:#000000;stroke:#000000;stroke-width:0.2;stroke-dasharray:none;stroke-opacity:1"
       d="m 164.66998,182.12579 v 4.13367"
       id="path1402" />
    <path
       style="opacity:1;fill:#000000;stroke:#000000;stroke-width:0.2;stroke-dasharray:none;stroke-opacity:1"
       d="m 164.74157,188.68024 v 3.32101"
       id="path1404" />
    <path
       style="opacity:1;fill:#000000;stroke:#000000;stroke-width:0.2;stroke-dasharray:none;stroke-opacity:1"
       d="m 93.997543,218.91128 -5.189058,1.9805"
       id="path1406" />
    <path
       style="opacity:1;fill:#000000;stroke:#000000;stroke-width:0.2;stroke-dasharray:none;stroke-opacity:1"
       d="m 88.411525,214.84551 -5.484627,1.8192"
       id="path1408" />
    <path
       style="opacity:1;fill:#000000;stroke:#000000;stroke-width:0.2;stroke-dasharray:none;stroke-opacity:1"
       d="m 85.362553,216.08134 5.077833,4.08083"
       id="path1410" />
    <path
       style="opacity:1;fill:#000000;stroke:#000000;stroke-width:0.2;stroke-dasharray:none;stroke-opacity:1"
       d="m 156.81276,183.15046 1.76118,-0.60848"
       id="path1412" />
    <path
       style="opacity:1;fill:#000000;stroke:#000000;stroke-width:0.2;stroke-dasharray:none;stroke-opacity:1"
       d="m 156.62962,182.89323 1.74526,-0.60505"
       id="path1414" />
    <path
       style="opacity:1;fill:#000000;stroke:#000000;stroke-width:0.2;stroke-dasharray:none;stroke-opacity:1"
       d="m 157.71312,180.92061 v 1.57955"
       id="path1416" />
    <path
       style="opacity:1;fill:#000000;stroke:#000000;stroke-width:0.2;stroke-dasharray:none;stroke-opacity:1"
       d="m 157.74175,182.87748 v 0.85457"
       id="path1418" />
    <path
       style="opacity:1;fill:none;stroke:#000000;stroke-width:0.2;stroke-dasharray:none;stroke-opacity:1"
       d="m 97.60283,220.03242 -1.735167,0.0594 0.02593,0.009 0.995704,-1.48342"
       id="path1420" />
    <path
       style="opacity:1;fill:none;stroke:#000000;stroke-width:0.2;stroke-dasharray:none;stroke-opacity:1"
       d="m 88.390017,219.87749 2.019366,0.27637 0.305557,-1.33191"
       id="path1422" />
    <path
       style="opacity:1;fill:none;stroke:#000000;stroke-width:0.2;stroke-dasharray:none;stroke-opacity:1"
       d="m 85.128231,217.48205 0.220909,-1.49028 v 0 l 2.151173,0.30202"
       id="path1424" />
    <path
       style="opacity:1;fill:none;stroke:#000000;stroke-width:0.2;stroke-dasharray:none;stroke-opacity:1"
       d="m 160.94577,193.55496 1.02435,-1.71762 -2.78651,-0.11243"
       id="path1426" />
    <path
       style="opacity:1;fill:none;stroke:#000000;stroke-width:0.2;stroke-dasharray:none;stroke-opacity:1"
       d="m 164.00243,190.38945 0.6333,-1.594 1.08334,1.35306"
       id="path1428" />
    <path
       style="opacity:1;fill:none;stroke:#000000;stroke-width:0.2;stroke-dasharray:none;stroke-opacity:1"
       d="m 163.6935,184.85379 0.93571,1.38153 0.64481,-1.5789"
       id="path1430" />
    <path
       style="opacity:1;fill:none;stroke:#000000;stroke-width:0.2;stroke-dasharray:none;stroke-opacity:1"
       d="m 157.35052,183.47238 0.35913,-0.41365 0.57236,0.23659"
       id="path1432" />
    <path
       style="opacity:1;fill:none;stroke:#000000;stroke-width:0.2;stroke-dasharray:none;stroke-opacity:1"
       d="m 156.98293,182.04512 0.73421,0.34066 0.66904,-0.67631"
       id="path1434" />
  </g>
</svg>
